<?xml version="1.0" encoding="UTF-8" standalone="no"?>
<svg
   xmlns:dc="http://purl.org/dc/elements/1.1/"
   xmlns:cc="http://creativecommons.org/ns#"
   xmlns:rdf="http://www.w3.org/1999/02/22-rdf-syntax-ns#"
   xmlns:svg="http://www.w3.org/2000/svg"
   xmlns="http://www.w3.org/2000/svg"
   version="1.1"
   id="svg2"
   viewBox="0 0 140 90.000001"
   height="90"
   width="140">
  <defs
     id="defs4" />
  <metadata
     id="metadata7">
    <rdf:RDF>
      <cc:Work
         rdf:about="">
        <dc:format>image/svg+xml</dc:format>
        <dc:type
           rdf:resource="http://purl.org/dc/dcmitype/StillImage" />
        <dc:title></dc:title>
      </cc:Work>
    </rdf:RDF>
  </metadata>
  <g
     transform="translate(0,-962.36216)"
     id="layer1">
    <g
       id="text4136"
       style="font-style:normal;font-weight:normal;font-size:62.08325958px;line-height:125%;font-family:Sans;letter-spacing:0px;word-spacing:0px;fill:#3c3c3c;fill-opacity:1;stroke:none;stroke-width:1px;stroke-linecap:butt;stroke-linejoin:miter;stroke-opacity:1"
       transform="scale(0.99835552,1.0016472)">
      <path
         id="path4697"
         style="font-style:normal;font-variant:normal;font-weight:normal;font-stretch:normal;font-family:'Rozha One';-inkscape-font-specification:'Rozha One';fill:#3c3c3c;fill-opacity:1"
         d="m 18.324462,1008.1069 q 5.090828,-0.3104 10.926654,1.0554 5.89791,1.4279 9.250406,1.4279 3.352496,0 4.966661,-1.4279 1.676248,-1.4279 1.676248,-3.6008 l 1.241665,0 q 0,7.1396 -1.924581,10.6783 -1.924581,3.6008 -7.015409,3.6008 -4.283745,0 -8.443323,-3.725 -1.738331,-1.552 -3.476662,-3.1041 -4.159579,-3.725 -8.257074,-3.725 -2.607497,0 -5.401244,2.1729 l -0.682915,-1.1175 q 1.986664,-1.7383 3.911245,-2.5454 1.924581,-0.745 2.731663,-0.9933 1.117499,-0.4346 4.159579,-1.1796 10.616237,-3.1663 10.616237,-19.18375 0,-8.31916 -2.66958,-12.66499 -2.607497,-4.34582 -6.580826,-4.34582 -3.911245,0 -6.270409,4.40791 -2.359164,4.34583 -2.359164,11.98207 0,7.63624 1.986665,11.8579 2.048747,4.15958 6.022076,4.15958 l 0,1.2417 q -8.38124,0 -13.2237344,-4.15962 -4.8424943,-4.15957 -4.8424943,-12.2304 0,-8.07082 5.1529106,-13.28582 5.1529101,-5.21499 13.5962341,-5.21499 8.443323,0 13.844567,5.21499 5.401243,5.215 5.401243,13.09957 0,4.59416 -1.924581,8.31916 -1.862498,3.725 -5.277077,6.27041 -6.767075,5.0287 -17.13498,6.7671 l 0,0.2483 z" />
      <path
         id="path4699"
         style="font-style:normal;font-variant:normal;font-weight:normal;font-stretch:normal;font-family:'Rozha One';-inkscape-font-specification:'Rozha One';fill:#3c3c3c;fill-opacity:1"
         d="m 69.14543,1003.5748 0,-3.2904 q -1.179582,1.6763 -3.724995,2.8558 -2.483331,1.1175 -5.401244,1.1175 -11.05082,0 -11.05082,-11.98202 l 0,-16.01749 -3.104163,0 0,-1.24166 12.416652,0 0,18.62498 q 0,4.40791 1.303748,6.27041 1.303749,1.86248 3.911246,1.86248 3.476662,0 5.649576,-3.72498 l 0,-21.79123 -3.104163,0 0,-1.24166 12.416652,0 0,27.31667 3.104163,0 0,1.2416 -12.416652,0 z" />
      <path
         id="path4701"
         style="font-style:normal;font-variant:normal;font-weight:normal;font-stretch:normal;font-family:'Rozha One';-inkscape-font-specification:'Rozha One';fill:#3c3c3c;fill-opacity:1"
         d="m 98.339113,1002.3332 3.104167,0 0,1.2416 -15.520819,0 0,-1.2416 3.104163,0 0,-26.07501 -2.483331,0 0,-1.24166 11.79582,0 0,27.31667 z m 0.558749,-35.51166 q 0,2.235 -1.614165,3.84916 -1.552081,1.55208 -3.849162,1.55208 -2.234997,0 -3.849162,-1.55208 -1.614165,-1.61416 -1.614165,-3.84916 0,-2.29708 1.614165,-3.91125 1.614165,-1.61416 3.849162,-1.61416 2.297081,0 3.849162,1.61416 1.614165,1.61417 1.614165,3.91125 z" />
      <path
         id="path4703"
         style="font-style:normal;font-variant:normal;font-weight:normal;font-stretch:normal;font-family:'Rozha One';-inkscape-font-specification:'Rozha One';fill:#3c3c3c;fill-opacity:1"
         d="m 117.23183,976.25819 0,15.14832 q 0,5.33916 0.43458,6.51874 0.43458,1.1175 0.93125,1.92458 0.93125,1.61417 3.22833,1.61417 2.35916,0 3.29041,-0.6208 l 0,1.2416 q -2.97999,2.1109 -6.51874,2.1109 -5.21499,0 -7.94666,-2.4834 -2.73166,-2.4833 -2.73166,-8.87787 l 0,-16.57624 -4.59416,0 0,-1.24166 4.59416,0 q 2.98,-0.49667 5.27708,-2.85583 2.29708,-2.42125 3.16624,-6.64291 l 0.86917,0 0,9.49874 7.20166,0 0,1.24166 -7.20166,0 z" />
    </g>
    <text
       id="text4140"
       y="1026.6133"
       x="26.553513"
       style="font-style:normal;font-weight:normal;font-size:40px;line-height:125%;font-family:Sans;letter-spacing:0px;word-spacing:0px;fill:#000000;fill-opacity:1;stroke:none;stroke-width:1px;stroke-linecap:butt;stroke-linejoin:miter;stroke-opacity:1"
       xml:space="preserve"><tspan
         y="1026.6133"
         x="26.553513"
         id="tspan4142" /></text>
    <g
       id="text4136-6"
       style="font-style:normal;font-weight:normal;font-size:42.7802124px;line-height:125%;font-family:Sans;letter-spacing:0px;word-spacing:0px;fill:#3c3c3c;fill-opacity:1;stroke:none;stroke-width:1px;stroke-linecap:butt;stroke-linejoin:miter;stroke-opacity:1"
       transform="scale(0.96525279,1.035998)">
      <path
         id="path4706"
         style="font-style:normal;font-variant:normal;font-weight:normal;font-stretch:normal;font-family:'Rozha One';-inkscape-font-specification:'Rozha One';fill:#3c3c3c;fill-opacity:1"
         d="m 59.431477,978.17164 0,10.43837 q 0,3.6791 0.299461,4.49192 0.299462,0.77005 0.641703,1.32619 0.641704,1.11229 2.224571,1.11229 1.625648,0 2.267352,-0.42781 l 0,0.85561 q -2.053451,1.45453 -4.491923,1.45453 -3.593537,0 -5.475867,-1.71121 -1.882329,-1.71121 -1.882329,-6.11757 l 0,-11.42232 -3.165736,0 0,-0.8556 3.165736,0 q 2.05345,-0.34225 3.636318,-1.96789 1.582868,-1.66843 2.181791,-4.57749 l 0.598923,0 0,6.54538 4.962504,0 0,0.8556 -4.962504,0 z" />
      <path
         id="path4708"
         style="font-style:normal;font-variant:normal;font-weight:normal;font-stretch:normal;font-family:'Rozha One';-inkscape-font-specification:'Rozha One';fill:#3c3c3c;fill-opacity:1"
         d="m 89.477223,996.13933 2.139011,0 0,0.8556 -10.695053,0 0,-0.8556 2.13901,0 0,-11.97846 q 0,-3.03739 -0.898384,-4.3208 -0.898385,-1.28341 -2.695154,-1.28341 -2.438472,0 -3.892999,2.56682 l 0,15.01585 2.139011,0 0,0.8556 -10.695053,0 0,-0.8556 2.13901,0 0,-26.95153 -2.13901,0 0,-0.85561 8.556042,0 0,11.20842 q 0.812824,-1.15507 2.524033,-1.92511 1.711208,-0.77005 3.764658,-0.77005 7.614878,0 7.614878,8.25659 l 0,11.03729 z" />
      <path
         id="path4710"
         style="font-style:normal;font-variant:normal;font-weight:normal;font-stretch:normal;font-family:'Rozha One';-inkscape-font-specification:'Rozha One';fill:#3c3c3c;fill-opacity:1"
         d="m 113.49965,988.43889 -12.91963,0 q 0.42781,7.52932 5.86089,7.52932 1.45453,0 3.29408,-0.68448 1.88233,-0.68449 2.73793,-1.92511 l 0.59893,0.4278 q -0.94117,1.58287 -3.20852,2.60959 -2.26735,1.02673 -4.5347,1.02673 -2.22457,0 -4.02134,-0.42781 -1.796772,-0.47058 -3.50798,-1.54008 -1.711209,-1.06951 -2.695154,-3.20852 -0.941164,-2.13901 -0.941164,-5.17641 0,-5.1764 2.866274,-7.65765 2.866274,-2.52404 6.930394,-2.52404 4.1069,0 6.80205,2.73794 2.73794,2.73793 2.73794,8.81272 z m -12.96241,-0.8556 6.97318,0 q 0,-3.93578 -0.85561,-6.88762 -0.81282,-2.95183 -2.65237,-2.95183 -1.83955,0 -2.65237,2.86627 -0.81283,2.8235 -0.81283,6.5026 l 0,0.47058 z" />
    </g>
    <g
       id="text4136-6-8"
       style="font-style:normal;font-weight:normal;font-size:35.79938889px;line-height:125%;font-family:Sans;letter-spacing:0px;word-spacing:0px;fill:#1bab75;fill-opacity:1;stroke:none;stroke-width:1px;stroke-linecap:butt;stroke-linejoin:miter;stroke-opacity:1"
       transform="scale(1.0237046,0.97684427)">
      <path
         id="path4713"
         style="font-style:normal;font-variant:normal;font-weight:normal;font-stretch:normal;font-family:'Rozha One';-inkscape-font-specification:'Rozha One';fill:#1bab75;fill-opacity:1"
         d="m 7.6752375,1075.9481 1.7899695,0 0,0.716 -8.94984723,0 0,-0.716 1.78996943,0 0,-15.0358 -1.43197554,0 0,-0.716 6.80188384,0 0,15.7518 z m 0.3221945,-20.4773 q 0,1.2888 -0.9307841,2.2196 -0.8949847,0.895 -2.2195621,0.895 -1.288778,0 -2.2195621,-0.895 -0.9307841,-0.9308 -0.9307841,-2.2196 0,-1.3246 0.9307841,-2.2553 0.9307841,-0.9308 2.2195621,-0.9308 1.3245774,0 2.2195621,0.9308 0.9307841,0.9307 0.9307841,2.2553 z" />
      <path
         id="path4715"
         style="font-style:normal;font-variant:normal;font-weight:normal;font-stretch:normal;font-family:'Rozha One';-inkscape-font-specification:'Rozha One';fill:#1bab75;fill-opacity:1"
         d="m 30.77703,1075.9481 1.78997,0 0,0.716 -8.949847,0 0,-0.716 1.789969,0 0,-10.0239 q 0,-2.5417 -0.751787,-3.6157 -0.751787,-1.074 -2.255362,-1.074 -2.040565,0 -3.257744,2.148 l 0,12.5656 1.789969,0 0,0.716 -8.949847,0 0,-0.716 1.78997,0 0,-15.0358 -1.78997,0 0,-0.716 7.159878,0 0,1.8616 q 0.680188,-0.9308 2.112164,-1.5752 1.467775,-0.6801 3.150346,-0.6801 6.372291,0 6.372291,6.9092 l 0,9.2363 z" />
      <path
         id="path4717"
         style="font-style:normal;font-variant:normal;font-weight:normal;font-stretch:normal;font-family:'Rozha One';-inkscape-font-specification:'Rozha One';fill:#1bab75;fill-opacity:1"
         d="m 41.643265,1060.9123 0,8.7351 q 0,3.0787 0.250595,3.7589 0.250596,0.6444 0.536991,1.1098 0.536991,0.9308 1.861568,0.9308 1.360377,0 1.897368,-0.358 l 0,0.716 q -1.718371,1.2172 -3.758936,1.2172 -3.007149,0 -4.582322,-1.432 -1.575173,-1.432 -1.575173,-5.1193 l 0,-9.5585 -2.649155,0 0,-0.716 2.649155,0 q 1.718371,-0.2864 3.042948,-1.6467 1.324578,-1.3962 1.825769,-3.8306 l 0.501192,0 0,5.4773 4.152729,0 0,0.716 -4.152729,0 z" />
      <path
         id="path4719"
         style="font-style:normal;font-variant:normal;font-weight:normal;font-stretch:normal;font-family:'Rozha One';-inkscape-font-specification:'Rozha One';fill:#1bab75;fill-opacity:1"
         d="m 63.814833,1069.5042 -10.811416,0 q 0.357994,6.3007 4.904516,6.3007 1.21718,0 2.756553,-0.5728 1.575173,-0.5728 2.291161,-1.611 l 0.501192,0.358 q -0.787587,1.3246 -2.684955,2.1838 -1.897367,0.8592 -3.794735,0.8592 -1.861568,0 -3.365142,-0.358 -1.503575,-0.3938 -2.93555,-1.2888 -1.431976,-0.895 -2.255362,-2.685 -0.787586,-1.7899 -0.787586,-4.3317 0,-4.3317 2.398559,-6.4081 2.398559,-2.1122 5.799501,-2.1122 3.436741,0 5.692103,2.2912 2.291161,2.2912 2.291161,7.3747 z m -10.847215,-0.716 5.8353,0 q 0,-3.2935 -0.715988,-5.7637 -0.680188,-2.4702 -2.219562,-2.4702 -1.539374,0 -2.219562,2.3986 -0.680188,2.3628 -0.680188,5.4415 l 0,0.3938 z" />
      <path
         id="path4721"
         style="font-style:normal;font-variant:normal;font-weight:normal;font-stretch:normal;font-family:'Rozha One';-inkscape-font-specification:'Rozha One';fill:#1bab75;fill-opacity:1"
         d="m 75.400411,1076.6641 -8.949848,0 0,-0.716 1.78997,0 0,-15.0358 -1.78997,0 0,-0.716 7.159878,0 0,4.2602 q 0.322195,-1.7542 1.145581,-2.864 0.859185,-1.1098 1.861568,-1.4678 1.038182,-0.3579 1.968966,-0.3579 0.966584,0 1.825769,0.3579 0.894985,0.3222 1.324577,1.3604 0.429593,1.0024 0.0358,2.0406 -0.393794,1.0024 -1.396176,1.432 -0.966584,0.4296 -1.78997,0.1074 -0.823386,-0.3222 -1.18138,-0.8592 -0.357994,-0.5728 -0.501191,-1.074 -0.357994,-1.3246 -0.966584,-1.3246 -0.680188,0 -1.503574,2.3628 -0.823386,2.3269 -0.823386,4.9403 l 0,6.8377 1.78997,0 0,0.716 z" />
      <path
         id="path4723"
         style="font-style:normal;font-variant:normal;font-weight:normal;font-stretch:normal;font-family:'Rozha One';-inkscape-font-specification:'Rozha One';fill:#1bab75;fill-opacity:1"
         d="m 102.51565,1075.9481 1.78997,0 0,0.716 -8.949847,0 0,-0.716 1.78997,0 0,-10.0239 q 0,-2.5417 -0.751787,-3.6157 -0.751788,-1.074 -2.255362,-1.074 -2.040565,0 -3.257744,2.148 l 0,12.5656 1.789969,0 0,0.716 -8.949847,0 0,-0.716 1.789969,0 0,-15.0358 -1.789969,0 0,-0.716 7.159878,0 0,1.8616 q 0.680188,-0.9308 2.112164,-1.5752 1.467775,-0.6801 3.150346,-0.6801 6.37229,0 6.37229,6.9092 l 0,9.2363 z" />
      <path
         id="path4725"
         style="font-style:normal;font-variant:normal;font-weight:normal;font-stretch:normal;font-family:'Rozha One';-inkscape-font-specification:'Rozha One';fill:#1bab75;fill-opacity:1"
         d="m 122.61812,1069.5042 -10.81141,0 q 0.35799,6.3007 4.90451,6.3007 1.21718,0 2.75656,-0.5728 1.57517,-0.5728 2.29116,-1.611 l 0.50119,0.358 q -0.78759,1.3246 -2.68495,2.1838 -1.89737,0.8592 -3.79474,0.8592 -1.86157,0 -3.36514,-0.358 -1.50358,-0.3938 -2.93555,-1.2888 -1.43198,-0.895 -2.25536,-2.685 -0.78759,-1.7899 -0.78759,-4.3317 0,-4.3317 2.39856,-6.4081 2.39856,-2.1122 5.7995,-2.1122 3.43674,0 5.6921,2.2912 2.29116,2.2912 2.29116,7.3747 z m -10.84721,-0.716 5.8353,0 q 0,-3.2935 -0.71599,-5.7637 -0.68019,-2.4702 -2.21956,-2.4702 -1.53937,0 -2.21956,2.3986 -0.68019,2.3628 -0.68019,5.4415 l 0,0.3938 z" />
      <path
         id="path4727"
         style="font-style:normal;font-variant:normal;font-weight:normal;font-stretch:normal;font-family:'Rozha One';-inkscape-font-specification:'Rozha One';fill:#1bab75;fill-opacity:1"
         d="m 131.84094,1060.9123 0,8.7351 q 0,3.0787 0.2506,3.7589 0.25059,0.6444 0.53699,1.1098 0.53699,0.9308 1.86157,0.9308 1.36037,0 1.89736,-0.358 l 0,0.716 q -1.71837,1.2172 -3.75893,1.2172 -3.00715,0 -4.58232,-1.432 -1.57518,-1.432 -1.57518,-5.1193 l 0,-9.5585 -2.64915,0 0,-0.716 2.64915,0 q 1.71837,-0.2864 3.04295,-1.6467 1.32458,-1.3962 1.82577,-3.8306 l 0.50119,0 0,5.4773 4.15273,0 0,0.716 -4.15273,0 z" />
    </g>
  </g>
</svg>
